<?xml version="1.0" encoding="utf-8"?>
<svg viewBox="0 0 24 24" width="24" height="24" fill="none" xmlns="http://www.w3.org/2000/svg">
  <path d="M17.25 18.75H9V8.25H17.25V13.5V18.75ZM17.25 6.75H9C8.60217 6.75 8.22064 6.90803 7.93934 7.18934C7.65803 7.47064 7.5 7.85217 7.5 8.25V18.75C7.5 19.1478 7.65803 19.5294 7.93934 19.8107C8.22064 20.092 8.60217 20.25 9 20.25H17.25C17.6478 20.25 18.0294 20.092 18.3107 19.8107C18.592 19.5294 18.75 19.1478 18.75 18.75V8.25C18.75 7.85217 18.592 7.47064 18.3107 7.18934C18.0294 6.90803 17.6478 6.75 17.25 6.75ZM15 3.75H6C5.60217 3.75 5.22064 3.90804 4.93934 4.18934C4.65804 4.47064 4.5 4.85217 4.5 5.25V15.75H6V5.25H15V3.75Z" fill="currentColor"/>
  <path d="M 12.888 17.187 C 12.415 17.186 11.947 17.079 11.52 16.876 C 11.092 16.672 10.715 16.376 10.415 16.009 L 11.697 14.937 C 12.283 15.638 13.172 15.612 13.56 15.326 C 13.667 15.242 13.83 15.127 13.588 14.753 C 13.526 14.66 13.219 14.429 12.804 14.235 C 12.769 14.219 12.667 14.183 12.585 14.151 C 12.091 13.976 11.264 13.682 10.842 13.008 C 10.291 12.126 10.592 11.015 11.182 10.373 C 11.404 10.135 11.673 9.945 11.971 9.815 C 12.269 9.684 12.591 9.616 12.916 9.614 L 12.938 9.614 C 13.696 9.622 14.532 9.989 15.061 10.332 L 14.155 11.735 C 13.752 11.472 13.244 11.288 12.923 11.286 C 12.828 11.286 12.733 11.305 12.646 11.343 C 12.559 11.381 12.48 11.436 12.415 11.505 C 12.253 11.682 12.176 11.989 12.26 12.124 C 12.373 12.304 12.914 12.497 13.146 12.579 C 13.285 12.628 13.404 12.67 13.51 12.721 C 13.914 12.908 14.642 13.306 14.992 13.846 C 15.647 14.859 15.471 15.994 14.553 16.671 C 14.067 17.015 13.484 17.195 12.888 17.187 Z" fill="#231F20" style=""/>
</svg>